<svg xmlns="http://www.w3.org/2000/svg" viewBox="0 0 28 28" fill="none">
  <rect width="28" height="28" rx="7" fill="#3B82F6"/>
  <path d="M5 22 L7.5 8 Q7.8 6.5 9.5 6.5 Q11 6.5 11.5 8 L13 16 L11 16 L10 10 Z M7.5 17.5 H11 L11.5 22 Z" fill="white"/>
  <path d="M14 15 C14 11.5 16 10 18.5 10 C20.5 10 22 11 22.5 12.5 L20.5 13.5 C20 12.5 19.5 12 18.5 12 C17.5 12 16 13 16 15 C16 17 17.5 18.5 19 18.5 C20 18.5 20.5 18 21 17 L19.5 16 H16.5 V17 H18 C18 17.5 17.5 18 17 18 C15.5 18 14 17 14 15 Z" fill="white"/>
</svg>
